<?xml version="1.0" encoding="UTF-8" standalone="no"?>
<!-- Generator: Adobe Illustrator 16.0.0, SVG Export Plug-In . SVG Version: 6.00 Build 0)  -->

<svg
   xmlns:dc="http://purl.org/dc/elements/1.1/"
   xmlns:cc="http://creativecommons.org/ns#"
   xmlns:rdf="http://www.w3.org/1999/02/22-rdf-syntax-ns#"
   xmlns:svg="http://www.w3.org/2000/svg"
   xmlns="http://www.w3.org/2000/svg"
   xmlns:sodipodi="http://sodipodi.sourceforge.net/DTD/sodipodi-0.dtd"
   xmlns:inkscape="http://www.inkscape.org/namespaces/inkscape"
   version="1.1"
   id="Layer_1"
   x="0px"
   y="0px"
   width="500"
   height="218.74316"
   viewBox="0 0 500.00001 218.74316"
   enable-background="new 0 0 512 512"
   xml:space="preserve"
   sodipodi:docname="key.svg"
   inkscape:version="0.92.0 r15299"
   inkscape:export-filename="C:\Users\mvanden\source\repos\KeyDispenser\KeyDispenser\key.png"
   inkscape:export-xdpi="96"
   inkscape:export-ydpi="96"><metadata
     id="metadata9"><rdf:RDF><cc:Work
         rdf:about=""><dc:format>image/svg+xml</dc:format><dc:type
           rdf:resource="http://purl.org/dc/dcmitype/StillImage" /><dc:title></dc:title></cc:Work></rdf:RDF></metadata><defs
     id="defs7" /><sodipodi:namedview
     pagecolor="#ffffff"
     bordercolor="#666666"
     borderopacity="1"
     objecttolerance="10"
     gridtolerance="10"
     guidetolerance="10"
     inkscape:pageopacity="0"
     inkscape:pageshadow="2"
     inkscape:window-width="1920"
     inkscape:window-height="1018"
     id="namedview5"
     showgrid="false"
     inkscape:pagecheckerboard="true"
     fit-margin-top="0"
     fit-margin-left="0"
     fit-margin-right="0"
     fit-margin-bottom="0"
     inkscape:zoom="0.4609375"
     inkscape:cx="224.50273"
     inkscape:cy="143.49727"
     inkscape:window-x="-8"
     inkscape:window-y="-8"
     inkscape:window-maximized="1"
     inkscape:current-layer="Layer_1" /><path
     d="m 31.264645,31.249022 c -41.686194,43.76133 -41.686194,112.499418 0,156.245118 0,17.25727 13.9771,31.24902 31.249026,31.24902 h 62.498039 c 17.2729,0 31.24902,-13.99175 31.24902,-31.24902 8.94113,-9.3835 15.56398,-20.0648 20.65952,-31.24904 h 73.08756 V 140.6206 H 468.75097 L 500,109.37157 468.75097,78.122552 H 250.00781 v -15.6245 H 176.92025 C 171.82373,51.298202 165.20186,40.648142 156.26073,31.249012 156.26073,13.976125 142.28363,0 125.01171,0 H 62.51367 C 45.241745,0 31.264645,13.976125 31.264645,31.249022 Z m 31.249026,46.87354 c 17.2729,0 31.249025,13.9771 31.249025,31.249008 0,17.25728 -13.977113,31.24903 -31.249025,31.24903 -17.271925,0 -31.249026,-13.99175 -31.249026,-31.24903 0,-17.272878 13.9771,-31.249008 31.249026,-31.249008 z"
     id="path2"
     inkscape:connector-curvature="0"
     style="fill:#ffffff;fill-opacity:1;stroke-width:0.97653192" /></svg>